# xmcd
#
# Track frame offsets: 
#        150
#        26594
#        39033
#        51681
#        64426
#        87341
#        110664
#        129592
#        147711
#        159280
#        173844
#        185336
#        206097
#        220934
#
# Disc length: 3138 seconds
#
# Revision: 3
# Processed by: cddbd v1.5.2PL0 Copyright (c) Steve Scherf et al.
# Submitted via: ExactAudioCopyFreeDBPlugin 1.0
#
DISCID=d40c400e
DTITLE=Ibrahim Ferrer - Ay Candela: Essential Collection Disc 2
DYEAR=2011
DGENRE=Latin
TTITLE0=Asi Es La Vida Company
TTITLE1=Como La Piel de Canela
TTITLE2=De Camino a La Vereda
TTITLE3=El Mecánico
TTITLE4=El Son de La Santiaguera
TTITLE5=En Qué Parte de Cuba Nació el Son
TTITLE6=Esto Se Baila y Se Toca
TTITLE7=Estoy Seco y Me Quiero Mojar
TTITLE8=Monte Adentro
TTITLE9=Nena Linda
TTITLE10=Pero Qué Suegro
TTITLE11=Un Son Para el Guayabero
TTITLE12=Rossana
TTITLE13=El Dandy
EXTD=
EXTT0=
EXTT1=
EXTT2=
EXTT3=
EXTT4=
EXTT5=
EXTT6=
EXTT7=
EXTT8=
EXTT9=
EXTT10=
EXTT11=
EXTT12=
EXTT13=
PLAYORDER=
